<svg xmlns="http://www.w3.org/2000/svg" viewBox="0 0 600 820"><defs><linearGradient id="b" x1="0" x2="1" y1="0" y2="1"><stop stop-color="#1b2345"/><stop offset=".55" stop-color="#6957d9"/><stop offset="1" stop-color="#fc6fa6"/></linearGradient><radialGradient id="g" cx="50%" cy="22%" r="70%"><stop stop-color="#fff7bf"/><stop offset=".22" stop-color="#70e5ff"/><stop offset="1" stop-color="#6d52d9"/></radialGradient><filter id="s" x="-20%" y="-20%" width="140%" height="140%"><feDropShadow dx="0" dy="24" stdDeviation="24" flood-opacity=".45"/></filter></defs><rect width="600" height="820" rx="52" fill="#11182c"/><rect x="24" y="24" width="552" height="772" rx="40" fill="url(#b)" filter="url(#s)"/><rect x="56" y="62" width="488" height="478" rx="32" fill="url(#g)"/><path d="M160 390c85-196 228-216 306-116-54 0-92 25-111 75 49-10 91 2 126 36-75 12-144 5-204-21-22 55-64 83-117 26z" fill="#fff3a6" opacity=".95"/><path d="M246 332c45-81 107-116 170-93-56 22-95 56-117 104z" fill="#62e6ff" opacity=".9"/><circle cx="368" cy="329" r="18" fill="#121827"/><path d="M100 590h400" stroke="#ffffff" stroke-opacity=".24" stroke-width="2"/><text x="70" y="616" fill="#fff" font-family="Inter,Arial" font-size="54" font-weight="900">Astral Drake</text><text x="72" y="666" fill="#cdd4ff" font-family="Inter,Arial" font-size="28" font-weight="700">Legendary Foil · Celestial Rift</text><text x="72" y="736" fill="#ffd56a" font-family="Inter,Arial" font-size="50" font-weight="900">129.90 Euro</text></svg>