<svg xmlns="http://www.w3.org/2000/svg" viewBox="0 0 600 820"><defs><linearGradient id="b" x1="0" x2="1" y1="0" y2="1"><stop stop-color="#38121f"/><stop offset=".55" stop-color="#ff6b6b"/><stop offset="1" stop-color="#ffd56a"/></linearGradient><radialGradient id="a" cx="50%" cy="35%" r="70%"><stop stop-color="#fff1a6"/><stop offset=".35" stop-color="#ff9d66"/><stop offset="1" stop-color="#712148"/></radialGradient></defs><rect width="600" height="820" rx="52" fill="#190b12"/><rect x="24" y="24" width="552" height="772" rx="40" fill="url(#b)"/><rect x="56" y="62" width="488" height="478" rx="32" fill="url(#a)"/><path d="M183 388c24-96 58-158 117-184 71 30 104 93 117 184-45 43-185 43-234 0z" fill="#fff2bb"/><path d="M222 212l-58-92 114 52zm156 0l58-92-114 52z" fill="#ff7b61"/><path d="M226 357c44 40 104 40 148 0" fill="none" stroke="#351427" stroke-width="18" stroke-linecap="round"/><circle cx="255" cy="303" r="14" fill="#351427"/><circle cx="345" cy="303" r="14" fill="#351427"/><path d="M86 590h428" stroke="#fff" stroke-opacity=".25" stroke-width="2"/><text x="70" y="616" fill="#fff" font-family="Inter,Arial" font-size="54" font-weight="900">Ember Kitsune</text><text x="72" y="666" fill="#ffe9d7" font-family="Inter,Arial" font-size="28" font-weight="700">Ultra Rare · Crimson Pact</text><text x="72" y="736" fill="#ffd56a" font-family="Inter,Arial" font-size="50" font-weight="900">44.90 Euro</text></svg>