<svg xmlns="http://www.w3.org/2000/svg" viewBox="0 0 600 820"><defs><linearGradient id="b" x1="0" x2="1" y1="0" y2="1"><stop stop-color="#101c35"/><stop offset=".55" stop-color="#62c7ff"/><stop offset="1" stop-color="#9b7cff"/></linearGradient><radialGradient id="m" cx="45%" cy="25%" r="70%"><stop stop-color="#f7fbff"/><stop offset=".25" stop-color="#bfe8ff"/><stop offset="1" stop-color="#243254"/></radialGradient></defs><rect width="600" height="820" rx="52" fill="#101421"/><rect x="24" y="24" width="552" height="772" rx="40" fill="url(#b)"/><rect x="56" y="62" width="488" height="478" rx="32" fill="url(#m)"/><path d="M355 160c-68 42-91 126-48 193 28 43 74 66 122 65-33 56-94 91-161 83-92-12-158-95-146-187 11-89 88-154 177-147 19 1 38 6 56 13z" fill="#fff7c7"/><path d="M197 372c61 42 139 42 206 0" stroke="#18213b" stroke-width="18" stroke-linecap="round" fill="none" opacity=".85"/><circle cx="250" cy="310" r="13" fill="#18213b"/><circle cx="352" cy="310" r="13" fill="#18213b"/><text x="70" y="616" fill="#fff" font-family="Inter,Arial" font-size="50" font-weight="900">Moonlit Guardian</text><text x="72" y="666" fill="#d9f2ff" font-family="Inter,Arial" font-size="28" font-weight="700">Ultra Rare · Lunar Oath</text><text x="72" y="736" fill="#ffd56a" font-family="Inter,Arial" font-size="50" font-weight="900">59.00 Euro</text></svg>